<svg id="Layer_1" data-name="Layer 1" xmlns="http://www.w3.org/2000/svg" viewBox="0 0 286.03214 250.7731"><defs><style>.cls-1,.cls-4{fill:none;}.cls-1,.cls-3,.cls-4{stroke:#3d4752;stroke-miterlimit:10;stroke-width:3.03214px;}.cls-2{fill:#3d4752;}.cls-3{fill:#fff;}.cls-4{stroke-dasharray:4;}</style></defs><title>featured bpmn</title><path class="cls-1" d="M282.49464,249.257H3.5375a2.02143,2.02143,0,0,1-2.02143-2.02143V3.5375A2.02143,2.02143,0,0,1,3.5375,1.51607H282.49464a2.02143,2.02143,0,0,1,2.02143,2.02143V247.2356A2.02143,2.02143,0,0,1,282.49464,249.257Zm-268.23777,0V1.51607m0,156.84006h270.2592M14.25687,82.61594h270.2592"/><path class="cls-1" d="M105.83134,143.13473V231.573a1.59319,1.59319,0,0,0,1.59262,1.5926H250.04127a1.59319,1.59319,0,0,0,1.59259-1.5926V217.39266"/><path class="cls-2" d="M251.63386,210.07287a36.65553,36.65553,0,0,0,5.76819,10.36673l-5.76819-2.08637-5.767,2.08637A36.62247,36.62247,0,0,0,251.63386,210.07287Z"/><path class="cls-3" d="M54.86816,38.02315a9.5556,9.5556,0,1,1-9.5556-9.5556A9.555,9.555,0,0,1,54.86816,38.02315Z"/><path class="cls-3" d="M80.34976,20.50455a1.59318,1.59318,0,0,1,1.5926-1.5926h47.778a1.59318,1.59318,0,0,1,1.5926,1.5926V55.54175a1.59318,1.59318,0,0,1-1.5926,1.5926h-47.778a1.59318,1.59318,0,0,1-1.5926-1.5926Z"/><path class="cls-3" d="M3.10867,249.257a1.59318,1.59318,0,0,1-1.5926-1.5926V3.10867a1.59318,1.59318,0,0,1,1.5926-1.5926h9.5556a1.59318,1.59318,0,0,1,1.5926,1.5926V247.66443a1.59318,1.59318,0,0,1-1.5926,1.5926Z"/><path class="cls-3" d="M80.34976,106.50494a1.59318,1.59318,0,0,1,1.5926-1.5926h47.778a1.59318,1.59318,0,0,1,1.5926,1.5926v35.03719a1.59318,1.59318,0,0,1-1.5926,1.5926h-47.778a1.59318,1.59318,0,0,1-1.5926-1.5926Z"/><path class="cls-3" d="M156.71491,180.60978a1.59318,1.59318,0,0,1,1.5926-1.5926h47.778a1.59318,1.59318,0,0,1,1.5926,1.5926V215.647a1.59318,1.59318,0,0,1-1.5926,1.5926h-47.778a1.59318,1.59318,0,0,1-1.5926-1.5926Z"/><path class="cls-3" d="M156.79454,20.50455a1.59318,1.59318,0,0,1,1.5926-1.5926h47.778a1.59318,1.59318,0,0,1,1.5926,1.5926V55.54175a1.59318,1.59318,0,0,1-1.5926,1.5926h-47.778a1.59318,1.59318,0,0,1-1.5926-1.5926Z"/><path class="cls-3" d="M261.10983,38.02315a9.5556,9.5556,0,1,1-9.5556-9.5556A9.555,9.555,0,0,1,261.10983,38.02315Z"/><path class="cls-3" d="M170.33164,124.02353l11.9445-11.9445,11.9445,11.9445-11.9445,11.9445Z"/><path class="cls-3" d="M239.68936,198.12837l11.9445-11.9445,11.9445,11.9445-11.9445,11.9445Z"/><line class="cls-1" x1="54.86818" y1="38.02314" x2="73.02998" y2="38.02314"/><path class="cls-2" d="M80.34974,38.02314A36.65473,36.65473,0,0,0,69.983,43.79133l2.08636-5.76819-2.08636-5.767A36.62284,36.62284,0,0,0,80.34974,38.02314Z"/><path class="cls-4" d="M105.83135,57.13435v47.778"/><line class="cls-1" x1="131.31294" y1="124.02353" x2="163.01185" y2="124.02353"/><path class="cls-2" d="M170.33162,124.02353a36.65513,36.65513,0,0,0-10.3667,5.76818l2.08636-5.76818-2.08636-5.767A36.62309,36.62309,0,0,0,170.33162,124.02353Z"/><line class="cls-1" x1="207.67811" y1="198.12837" x2="232.36958" y2="198.12837"/><path class="cls-2" d="M239.68934,198.12837a36.65481,36.65481,0,0,0-10.3667,5.76818l2.08636-5.76818-2.08636-5.767A36.62285,36.62285,0,0,0,239.68934,198.12837Z"/><line class="cls-1" x1="182.27614" y1="135.96804" x2="182.21003" y2="171.6974"/><path class="cls-2" d="M182.19648,179.01718a36.654,36.654,0,0,0-5.749-10.37738l5.76428,2.097,5.77087-2.0757A36.624,36.624,0,0,0,182.19648,179.01718Z"/><line class="cls-1" x1="182.27614" y1="112.07904" x2="182.27614" y2="64.45413"/><path class="cls-2" d="M182.27614,57.13435a36.65565,36.65565,0,0,0,5.76819,10.36673l-5.76819-2.08638-5.767,2.08638A36.62259,36.62259,0,0,0,182.27614,57.13435Z"/><line class="cls-1" x1="207.75776" y1="38.02314" x2="234.67885" y2="38.02314"/><path class="cls-2" d="M241.99861,38.02314a36.65474,36.65474,0,0,0-10.3667,5.76819l2.08636-5.76819-2.08636-5.767A36.62284,36.62284,0,0,0,241.99861,38.02314Z"/></svg>